<svg width="15" height="14" viewBox="0 0 15 14" fill="none" xmlns="http://www.w3.org/2000/svg">
<path d="M6.30664 1.09375L6.99414 0.40625C7.30664 0.125 7.77539 0.125 8.05664 0.40625L14.1504 6.46875C14.4316 6.78125 14.4316 7.25 14.1504 7.53125L8.05664 13.625C7.77539 13.9062 7.30664 13.9062 6.99414 13.625L6.30664 12.9375C6.02539 12.625 6.02539 12.1562 6.30664 11.8438L10.0879 8.25H1.11914C0.681641 8.25 0.369141 7.9375 0.369141 7.5V6.5C0.369141 6.09375 0.681641 5.75 1.11914 5.75H10.0879L6.30664 2.1875C6.02539 1.875 5.99414 1.40625 6.30664 1.09375Z" fill="#2B2B2B"/>
</svg>
